<?xml version="1.0" encoding="UTF-8"?>
<svg xmlns="http://www.w3.org/2000/svg" viewBox="0 0 499 520" width="499" height="520">
  <path d="M0 0 C7.4954097 4.71815095 15.1301006 9.06602314 23.59521484 11.79248047 C24.51431641 12.09541016 25.43341797 12.39833984 26.38037109 12.71044922 C34.79684377 15.09876674 42.44430962 15.95954058 51.22021484 15.91748047 C52.37416748 15.91474121 53.52812012 15.91200195 54.71704102 15.90917969 C61.97720856 15.8201481 68.50950049 15.238145 75.54052734 13.39013672 C78.59941626 12.58747788 81.58900234 12.10085277 84.72021484 11.66748047 C93.40717852 10.40646961 101.95950418 8.46990275 110.53271484 6.60498047 C107.48557435 9.89106688 103.89985235 11.56715748 99.90771484 13.47998047 C95.53276992 15.61019434 91.20983535 17.72695884 87.03271484 20.22998047 C63.5224074 33.47397219 31.58102459 39.38928741 5.38525391 32.51147461 C-5.5780821 29.28974514 -15.73951538 24.02888017 -25.8918457 18.87866211 C-32.14883058 15.72106566 -38.48321782 12.73836806 -44.84228516 9.79248047 C-45.84066406 9.32422852 -46.83904297 8.85597656 -47.86767578 8.37353516 C-53.96363986 5.56890498 -59.99103368 3.35102161 -66.46728516 1.60498047 C-67.54236328 1.29173828 -68.61744141 0.97849609 -69.72509766 0.65576172 C-85.23811993 -3.33873584 -100.29976472 -2.55691482 -114.44775391 5.24951172 C-116.92742161 6.91137676 -119.19525904 8.67143124 -121.46728516 10.60498047 C-122.08732422 11.08064453 -122.70736328 11.55630859 -123.34619141 12.04638672 C-127.54829617 15.64684785 -130.1102316 20.1254734 -132.65478516 24.97998047 C-133.1364917 25.86931274 -133.1364917 25.86931274 -133.62792969 26.77661133 C-139.89383931 39.47195949 -141.16852452 53.49614089 -140.96728516 67.41748047 C-140.95997375 68.53610977 -140.95997375 68.53610977 -140.95251465 69.67733765 C-140.81305006 88.06447589 -139.22828205 106.80015175 -133.4597168 124.35620117 C-132.47056523 127.59424295 -131.74708436 130.79511488 -131.07666016 134.11279297 C-129.55742224 141.35064935 -127.71906447 148.46979653 -125.77978516 155.60498047 C-125.42995464 156.90313554 -125.08051739 158.20139664 -124.73144531 159.49975586 C-124.00805404 162.18905842 -123.28300746 164.87790589 -122.55664062 167.56640625 C-118.36680308 183.0849289 -114.23399701 198.61953727 -110.15478516 214.16748047 C-109.92452637 215.04009521 -109.69426758 215.91270996 -109.45703125 216.81176758 C-106.72990521 227.24907717 -104.41975594 237.78066618 -102.11018372 248.31642151 C-98.85506139 263.16264328 -95.57673078 277.96695517 -91.46728516 292.60498047 C-91.15533203 293.75998047 -90.84337891 294.91498047 -90.52197266 296.10498047 C-86.15778629 311.9480772 -81.24370218 327.28757919 -73.43457031 341.78320312 C-71.71363206 345.02440485 -70.09822877 348.31777925 -68.46728516 351.60498047 C-93.695495 339.61212697 -110.1118194 300.44047224 -118.97705078 276.05517578 C-119.91206228 273.36465998 -120.80662451 270.66214576 -121.68945312 267.95410156 C-122.93793932 264.18356354 -124.26245316 260.43981512 -125.57421875 256.69091797 C-138.90751391 218.50791466 -150.8231982 180.13619684 -160.71728516 140.91748047 C-160.88413818 140.25987732 -161.05099121 139.60227417 -161.22290039 138.92474365 C-163.60082435 129.53123664 -165.66971008 120.12584985 -167.46728516 110.60498047 C-167.63695801 109.72269775 -167.80663086 108.84041504 -167.98144531 107.93139648 C-174.34770929 73.08842646 -174.54627573 32.03237388 -154.46728516 1.60498047 C-141.74882748 -16.03964039 -123.52699775 -27.9492483 -102.02197266 -31.77001953 C-64.41677018 -37.41480899 -30.63897704 -19.44296735 0 0 Z " fill="#0891b2" transform="translate(198.46728515625,110.39501953125)"/>
  <path d="M0 0 C3.91048084 3.02390699 7.54198733 6.30016067 11.15380859 9.671875 C11.82798828 10.25453125 12.50216797 10.8371875 13.19677734 11.4375 C19.12356408 16.80822666 23.02507872 23.90267834 27.15380859 30.671875 C27.95238281 31.91324219 27.95238281 31.91324219 28.76708984 33.1796875 C31.45670998 38.01342735 32.92073041 43.3484475 34.52197266 48.62011719 C35.10530193 50.51435955 35.73308628 52.39475896 36.36474609 54.2734375 C44.88797951 83.47004557 38.13575244 117.71987404 30.71484375 146.45068359 C30.06475899 149.02443083 29.45729243 151.60651884 28.85302734 154.19140625 C23.69509478 176.2058032 18.14580474 198.16195231 11.15380859 219.671875 C10.50514603 221.81685478 9.85926775 223.96267872 9.21630859 226.109375 C7.45880145 231.85151371 5.48849557 237.50432027 3.43530273 243.14624023 C1.92499096 247.33562456 0.58220654 251.54816853 -0.68994141 255.81640625 C-2.87400586 262.9841653 -5.56202694 269.90655011 -8.34619141 276.859375 C-8.81927734 278.05240234 -9.29236328 279.24542969 -9.77978516 280.47460938 C-10.70333432 282.80139045 -11.62974137 285.12703968 -12.55932617 287.45141602 C-13.37457766 289.49163273 -14.18550464 291.53358727 -14.99047852 293.57788086 C-16.64334548 297.76537681 -18.32453762 301.86302731 -20.40869141 305.859375 C-21.79392735 308.52538648 -23.05194562 311.16333363 -24.21337891 313.9375 C-32.47032811 333.41173365 -46.94392693 356.73703202 -64.84619141 368.671875 C-63.53733238 365.18158426 -61.96339737 361.91072251 -60.23217773 358.61157227 C-52.4913736 343.75992077 -46.95091324 328.06735051 -42.50488281 311.94799805 C-41.68522458 309.11565051 -40.77934278 306.31362811 -39.88525391 303.50390625 C-37.83054204 296.85861605 -36.35003217 290.17215692 -34.97119141 283.359375 C-32.62916812 272.10124118 -29.99268391 260.95271663 -27.14697266 249.8125 C-26.1434625 245.88332281 -25.21468847 241.94594056 -24.34619141 237.984375 C-22.90031628 231.59208498 -21.07082397 225.32051875 -19.25073242 219.02709961 C-16.33371733 208.9397981 -13.57259763 198.81216005 -10.84619141 188.671875 C-10.62044434 187.83350098 -10.39469727 186.99512695 -10.16210938 186.13134766 C-7.67826751 176.88136703 -5.29423219 167.62059742 -3.18945312 158.27612305 C-2.51254663 155.3081201 -1.76504952 152.43025921 -0.79541016 149.54296875 C0.14581308 146.69605897 0.69714252 144.0070497 1.15380859 141.046875 C1.32009766 139.995 1.48638672 138.943125 1.65771484 137.859375 C1.82142578 136.8075 1.98513672 135.755625 2.15380859 134.671875 C2.46377396 132.79645432 2.77627567 130.92145109 3.09130859 129.046875 C3.24462646 128.10610107 3.39794434 127.16532715 3.5559082 126.19604492 C3.97576538 123.72130489 4.42599108 121.25161784 4.8984375 118.78637695 C6.83910378 108.44355139 7.65628452 98.42111429 7.59985352 87.90258789 C7.59127167 85.4739269 7.62039336 83.04757636 7.65185547 80.61914062 C7.73768071 61.6287159 2.83894948 43.83018554 -10.51635742 29.7355957 C-23.59903007 16.69287015 -40.1187084 12.51305866 -58.09619141 12.484375 C-61.34731833 12.51500988 -64.59611793 12.58530635 -67.84619141 12.671875 C-69.15587891 12.70152344 -70.46556641 12.73117188 -71.81494141 12.76171875 C-80.74330271 13.13988281 -89.25635379 14.57760519 -98.02514648 16.22070312 C-107.61072254 17.94975953 -117.12277504 18.45887574 -126.84619141 18.671875 C-123.73728605 15.31274068 -120.31396512 12.80055347 -116.47119141 10.359375 C-115.85977295 9.96911133 -115.24835449 9.57884766 -114.6184082 9.17675781 C-108.25605815 5.18960916 -101.64033856 1.86912072 -94.84619141 -1.328125 C-93.35732422 -2.0396875 -93.35732422 -2.0396875 -91.83837891 -2.765625 C-86.27524031 -5.36898791 -80.76669323 -7.6825987 -74.84619141 -9.328125 C-73.59580078 -9.68132812 -72.34541016 -10.03453125 -71.05712891 -10.3984375 C-47.02826131 -16.70985197 -20.62728882 -14.83899116 0 0 Z " fill="#0891b2" transform="translate(356.84619140625,93.328125)"/>
  <path d="M0 0 C9.58979152 -0.70979559 16.66220933 4.41090115 23.79296875 10.31640625 C48.11834911 33.36760002 51.0822337 70.40079044 53.91796875 101.76937866 C54.94963569 113.15360676 56.04237998 124.4993733 57.66796875 135.81640625 C57.80976563 136.85756592 57.9515625 137.89872559 58.09765625 138.97143555 C59.19051646 146.18347412 60.82609249 153.55109058 65.296875 159.47460938 C66.66796875 161.31640625 66.66796875 161.31640625 66.66796875 163.31640625 C70.29796875 163.97640625 73.92796875 164.63640625 77.66796875 165.31640625 C72.70623993 169.03770286 70.86036811 169.9156707 64.66796875 169.31640625 C57.48141378 166.55451453 53.23016883 160.91400217 49.66796875 154.31640625 C47.64359717 149.73735806 45.97696503 145.02919047 44.36108398 140.29345703 C43.639458 138.23508183 42.854329 136.2080703 42.0625 134.17578125 C40.87580899 131.03399957 40.11145887 128.02209848 39.60546875 124.69140625 C39.17229728 121.87785443 38.68314587 119.35921839 37.73046875 116.671875 C36.23317131 111.94327758 35.5283335 107.14226038 34.73046875 102.25390625 C28.73884192 61.74631371 28.73884192 61.74631371 8.79296875 27.19140625 C5.70206375 25.33686325 3.3960496 24.3134036 -0.26171875 24.60546875 C-7.44545557 27.07233686 -11.21148696 35.4439153 -14.45703125 41.81640625 C-17.18501396 47.42020646 -19.53674255 53.14015331 -21.64453125 59.00390625 C-21.87479004 59.64328125 -22.10504883 60.28265625 -22.34228516 60.94140625 C-25.97755809 71.58851524 -27.80495204 82.70244493 -29.72924805 93.75488281 C-40.27909329 154.28851288 -40.27909329 154.28851288 -58.33203125 167.31640625 C-62.04852986 169.17465556 -66.27711678 168.77022662 -70.33203125 168.31640625 C-73.26111803 167.24146896 -75.63016588 165.91751166 -78.33203125 164.31640625 C-77.83703125 163.32640625 -77.83703125 163.32640625 -77.33203125 162.31640625 C-76.67203125 162.64640625 -76.01203125 162.97640625 -75.33203125 163.31640625 C-70.45313463 163.92087132 -66.61275338 164.1795016 -62.45703125 161.37890625 C-53.95168257 149.12119786 -53.03105973 134.21813349 -52.53741455 119.74084473 C-52.05821144 106.40538996 -50.92491483 93.26421856 -48.95703125 80.06640625 C-48.85779358 79.38395844 -48.75855591 78.70151062 -48.65631104 77.99838257 C-46.64381566 64.33085815 -43.81216138 50.80827079 -38.51953125 38.00390625 C-38.00241577 36.73691895 -38.00241577 36.73691895 -37.47485352 35.44433594 C-34.74220237 28.9300866 -31.60853307 22.96609672 -27.33203125 17.31640625 C-26.51992187 16.23359375 -26.51992187 16.23359375 -25.69140625 15.12890625 C-18.75192151 6.56804657 -10.82913747 1.46927996 0 0 Z " fill="#0891b2" transform="translate(208.33203125,317.68359375)"/>
  <path d="M0 0 C0.33 0 0.66 0 1 0 C1.17015625 1.11117188 1.3403125 2.22234375 1.515625 3.3671875 C3.66000346 19.44148498 3.66000346 19.44148498 13 32 C19.25074035 35.2943091 25.47234645 35.93104712 32.4375 36.6875 C33.55060547 36.81705078 34.66371094 36.94660156 35.81054688 37.08007812 C38.53941886 37.39629934 41.26901853 37.70264842 44 38 C44 38.33 44 38.66 44 39 C42.15148437 39.14695312 42.15148437 39.14695312 40.265625 39.296875 C24.27522289 40.48482032 24.27522289 40.48482032 10 47.1875 C4.79352053 54.50911175 3.42850423 61.32859929 2.68286133 70.14746094 C2.35602503 73.84518887 2.10053098 75.84920354 0 79 C-0.07516846 78.40050537 -0.15033691 77.80101074 -0.2277832 77.18334961 C-0.57874001 74.43325951 -0.9454924 71.68549223 -1.3125 68.9375 C-1.48942383 67.52307617 -1.48942383 67.52307617 -1.66992188 66.08007812 C-2.72550586 58.31206263 -4.30621304 51.77469335 -10 46 C-19.6554538 40.88828916 -30.29690185 39.86816898 -41 39 C-41 38.67 -41 38.34 -41 38 C-40.34515625 37.93006836 -39.6903125 37.86013672 -39.015625 37.78808594 C-36.00844341 37.45784813 -33.00446026 37.10411014 -30 36.75 C-28.97003906 36.64042969 -27.94007813 36.53085937 -26.87890625 36.41796875 C-19.18971293 35.48742943 -12.33738751 34.22906739 -7.17578125 28.02734375 C-4.00100513 23.04639002 -3.22381724 17.28772805 -2.1875 11.5625 C-1.97158203 10.44939453 -1.75566406 9.33628906 -1.53320312 8.18945312 C-1.00648254 5.46221097 -0.49594784 2.73297557 0 0 Z " fill="#0891b2" transform="translate(390,17)"/>
  <path d="M0 0 C0.66 0 1.32 0 2 0 C2.19335938 0.90363281 2.38671875 1.80726563 2.5859375 2.73828125 C2.97652344 4.50751953 2.97652344 4.50751953 3.375 6.3125 C3.63023437 7.48425781 3.88546875 8.65601563 4.1484375 9.86328125 C4.85695531 13.12920445 4.85695531 13.12920445 7 16 C11.58430352 17.96470151 16.08570273 18.49162442 21 19 C21 19.33 21 19.66 21 20 C20.10796875 20.08636719 19.2159375 20.17273438 18.296875 20.26171875 C17.12640625 20.40222656 15.9559375 20.54273438 14.75 20.6875 C13.58984375 20.81511719 12.4296875 20.94273437 11.234375 21.07421875 C7.20670049 22.22706761 6.1085976 23.41936256 4 27 C3.10381919 30.10071259 3.10381919 30.10071259 2.75 33.3125 C2.60046875 34.38113281 2.4509375 35.44976562 2.296875 36.55078125 C2.19890625 37.35902344 2.1009375 38.16726562 2 39 C1.34 39 0.68 39 0 39 C-0.10957031 38.09636719 -0.21914063 37.19273437 -0.33203125 36.26171875 C-0.56986328 34.49248047 -0.56986328 34.49248047 -0.8125 32.6875 C-0.96332031 31.51574219 -1.11414063 30.34398437 -1.26953125 29.13671875 C-2.14346137 25.34457883 -2.14346137 25.34457883 -5 23 C-7.95035562 21.99061248 -7.95035562 21.99061248 -11.1875 21.3125 C-12.27417969 21.06113281 -13.36085938 20.80976563 -14.48046875 20.55078125 C-15.31191406 20.36902344 -16.14335937 20.18726563 -17 20 C-17 19.67 -17 19.34 -17 19 C-15.96939453 18.80083984 -15.96939453 18.80083984 -14.91796875 18.59765625 C-13.56638672 18.33275391 -13.56638672 18.33275391 -12.1875 18.0625 C-11.29417969 17.88847656 -10.40085937 17.71445313 -9.48046875 17.53515625 C-6.88602829 17.02258847 -6.88602829 17.02258847 -4 16 C-1.16052473 10.75789181 -0.38832925 5.90528268 0 0 Z " fill="#0891b2" transform="translate(331,149)"/>
  <path d="M0 0 C2.02464886 3.03697329 2.32895408 4.37859106 2.8125 7.875 C3.47980814 11.31188777 4.04446272 13.06808353 6 16.0625 C10.19398878 18.77111775 14.08945907 18.89511466 19 19 C16.15783775 21.84216225 13.29198692 21.75099462 9.41015625 22.33984375 C6.582112 23.11446203 5.65456854 23.58332716 4 26 C2.98368504 29.41062962 2.98368504 29.41062962 2.3125 33.1875 C2.06113281 34.45980469 1.80976563 35.73210937 1.55078125 37.04296875 C1.36902344 38.01878906 1.18726563 38.99460938 1 40 C0.67 40 0.34 40 0 40 C-0.11214844 38.67935547 -0.11214844 38.67935547 -0.2265625 37.33203125 C-0.77637366 29.81718481 -0.77637366 29.81718481 -4.6875 23.75 C-8.23739416 21.87458422 -11.03460946 21.38876378 -15 21 C-15.33 20.34 -15.66 19.68 -16 19 C-15.31292969 18.87882812 -14.62585938 18.75765625 -13.91796875 18.6328125 C-13.01691406 18.46523437 -12.11585938 18.29765625 -11.1875 18.125 C-10.29417969 17.96257812 -9.40085937 17.80015625 -8.48046875 17.6328125 C-5.77272154 17.08811551 -5.77272154 17.08811551 -3 15 C-0.87476613 10.15918951 -0.43999579 5.21047642 0 0 Z " fill="#0891b2" transform="translate(417,126)"/>
  <path d="M0 0 C0.33 0 0.66 0 1 0 C1.22042969 1.46373047 1.22042969 1.46373047 1.4453125 2.95703125 C1.66960937 4.22933594 1.89390625 5.50164063 2.125 6.8125 C2.33382813 8.07707031 2.54265625 9.34164063 2.7578125 10.64453125 C3.70321089 14.18987806 3.70321089 14.18987806 6.78125 15.90625 C9.75899094 16.91810372 12.24982952 17.47633983 15.375 17.6875 C16.24898438 17.75324219 17.12296875 17.81898437 18.0234375 17.88671875 C18.67570312 17.92410156 19.32796875 17.96148437 20 18 C20 18.33 20 18.66 20 19 C19.02417969 19.09796875 18.04835938 19.1959375 17.04296875 19.296875 C15.77066406 19.44640625 14.49835938 19.5959375 13.1875 19.75 C11.92292969 19.88921875 10.65835937 20.0284375 9.35546875 20.171875 C6.0199773 20.71539766 6.0199773 20.71539766 4.125 22.6875 C2.73570449 25.54327409 2.25645984 28.10813033 1.8125 31.25 C1.57466797 32.86648437 1.57466797 32.86648437 1.33203125 34.515625 C1.22246094 35.33546875 1.11289062 36.1553125 1 37 C-1.99601036 34.00398964 -1.83471236 30.62159471 -2.4375 26.53125 C-2.79667439 23.84540862 -2.79667439 23.84540862 -5 22 C-7.1894648 21.38649958 -9.40231857 20.85440188 -11.625 20.375 C-12.81351562 20.11460938 -14.00203125 19.85421875 -15.2265625 19.5859375 C-16.14179688 19.39257812 -17.05703125 19.19921875 -18 19 C-18 18.67 -18 18.34 -18 18 C-17.09636719 17.93683594 -16.19273437 17.87367187 -15.26171875 17.80859375 C-11.71803087 17.44066987 -8.42927767 16.97235215 -5 16 C-2.9422392 13.11913488 -2.53711843 12.25933227 -2 9 C-1.8040625 8.18789063 -1.608125 7.37578125 -1.40625 6.5390625 C-0.88530185 4.36616036 -0.42282971 2.19374004 0 0 Z " fill="#0891b2" transform="translate(314,16)"/>
  <path d="M0 0 C6.27 0.66 12.54 1.32 19 2 C19 2.33 19 2.66 19 3 C16.91814549 3.22262606 14.83439574 3.42757926 12.75 3.625 C11.58984375 3.74101563 10.4296875 3.85703125 9.234375 3.9765625 C6.01504978 3.99989094 4.62209753 3.76811164 2 2 C1.34 1.34 0.68 0.68 0 0 Z " fill="#0891b2" transform="translate(415,53)"/>
  <path d="M0 0 C0.99 0.99 1.98 1.98 3 3 C0.42215154 5.64752004 -1.91648098 7.94432065 -5 10 C-3.66511872 6.40608886 -2.03977277 3.24509304 0 0 Z " fill="#0891b2" transform="translate(297,452)"/>
  <path d="M0 0 C2.52588702 2.36292656 3.88820837 3.66462511 5 7 C2.11562221 5.70700306 0.12780579 4.34058637 -2 2 C-1.34 2 -0.68 2 0 2 C0 1.34 0 0.68 0 0 Z " fill="#0891b2" transform="translate(125,455)"/>
  <path d="M0 0 C0.66 0 1.32 0 2 0 C2.33 2.97 2.66 5.94 3 9 C2.67 8.34 2.34 7.68 2 7 C1.34 7 0.68 7 0 7 C0 4.69 0 2.38 0 0 Z " fill="#0891b2" transform="translate(331,149)"/>
  <path d="M0 0 C0.66 0.33 1.32 0.66 2 1 C-0.64 3.64 -3.28 6.28 -6 9 C-6 6 -6 6 -3.5625 3.375 C-2.716875 2.59125 -1.87125 1.8075 -1 1 C-0.67 0.67 -0.34 0.34 0 0 Z " fill="#0891b2" transform="translate(403,61)"/>
  <path d="M0 0 C-3.96 1.98 -3.96 1.98 -8 4 C-8.66 3.01 -9.32 2.02 -10 1 C-8.71073008 0.63720544 -7.41846728 0.28503302 -6.125 -0.0625 C-5.40570313 -0.25972656 -4.68640625 -0.45695312 -3.9453125 -0.66015625 C-2 -1 -2 -1 0 0 Z " fill="#0891b2" transform="translate(309,118)"/>
  <path d="M0 0 C0.33 0 0.66 0 1 0 C1.33 3.3 1.66 6.6 2 10 C1.01 10 0.02 10 -1 10 C-0.67 6.7 -0.34 3.4 0 0 Z " fill="#0891b2" transform="translate(390,17)"/>
</svg>